<?xml version="1.0" encoding="UTF-8" standalone="no"?>
<!DOCTYPE svg PUBLIC "-//W3C//DTD SVG 1.1//EN" "http://www.w3.org/Graphics/SVG/1.1/DTD/svg11.dtd">
<svg width="100%" height="100%" viewBox="0 0 1227 1227" version="1.1" xmlns="http://www.w3.org/2000/svg" xmlns:xlink="http://www.w3.org/1999/xlink" xml:space="preserve" xmlns:serif="http://www.serif.com/" style="fill-rule:evenodd;clip-rule:evenodd;stroke-linejoin:round;stroke-miterlimit:2;">
    <g transform="matrix(1,0,0,1,-591.47,-927.079)">
        <g>
            <path d="M1818.05,1233.72C1818.05,1064.48 1680.64,927.079 1511.4,927.079L898.114,927.079C728.872,927.079 591.47,1064.48 591.47,1233.72L591.47,1847.01C591.47,2016.25 728.872,2153.65 898.114,2153.65L1511.4,2153.65C1680.64,2153.65 1818.05,2016.25 1818.05,1847.01L1818.05,1233.72Z" style="fill:rgb(9,35,12);"/>
            <g transform="matrix(1,0,0,1.18095,-138.711,-211.03)">
                <path d="M1304.38,1270.4C1383.36,1157.86 1541.31,1157.86 1620.29,1214.13C1699.27,1270.4 1732.28,1405.24 1620.29,1495.49C1525.11,1572.18 1377.23,1709.46 1304.38,1827.02C1241.48,1712.63 1094.32,1579.89 988.472,1495.49C875.924,1405.74 909.495,1270.4 988.472,1214.13C1067.45,1157.86 1225.4,1157.86 1304.38,1270.4Z" style="fill:rgb(255,164,0);"/>
            </g>
            <g transform="matrix(1,0,0,1.18095,-60.3099,-256.021)">
                <path d="M1304.38,1270.4C1383.36,1157.86 1541.31,1157.86 1620.29,1214.13C1699.27,1270.4 1732.28,1405.24 1620.29,1495.49C1525.11,1572.18 1377.23,1709.46 1304.38,1827.02C1241.48,1712.63 1094.32,1579.89 988.472,1495.49C875.924,1405.74 909.495,1270.4 988.472,1214.13C1067.45,1157.86 1225.4,1157.86 1304.38,1270.4Z" style="fill:rgb(237,255,225);"/>
            </g>
        </g>
    </g>
</svg>
